<?xml version="1.0" standalone="no"?><!DOCTYPE svg PUBLIC "-//W3C//DTD SVG 1.1//EN" "http://www.w3.org/Graphics/SVG/1.1/DTD/svg11.dtd"><svg t="1783700036888" class="icon" viewBox="0 0 1024 1024" version="1.1" xmlns="http://www.w3.org/2000/svg" p-id="5984" xmlns:xlink="http://www.w3.org/1999/xlink" width="200" height="200"><path d="M56.34645 289.395247l438.317343 181.372694q1.025889 0.425092 2.074451 0.801063 1.046672 0.374081 2.110346 0.695262 1.065565 0.32307 2.144355 0.59324 1.07879 0.27017 2.168915 0.487439 1.090125 0.21538 2.191586 0.379749 1.099572 0.16248 2.206702 0.272059 1.107129 0.10769 2.216147 0.162479 1.110908 0.05479 2.223705 0.05479 1.112797 0 2.223705-0.05479 1.109018-0.05479 2.216147-0.162479 1.107129-0.109579 2.206702-0.272059 1.101461-0.164369 2.191586-0.379749 1.090125-0.217269 2.168915-0.487439 1.07879-0.27017 2.144355-0.59324 1.063675-0.321181 2.110346-0.695262 1.048561-0.37597 2.074451-0.801063l438.317343-181.372694q1.029668-0.425092 2.038553-0.901195 1.006996-0.476103 1.989432-1.001329 0.982435-0.525225 1.938421-1.097682 0.955985-0.572458 1.881741-1.190259 0.925756-0.61969 1.821285-1.282834 0.895528-0.663144 1.757048-1.369741 0.86152-0.706598 1.687143-1.454761t1.613462-1.536q0.787838-0.787838 1.536-1.613461 0.748162-0.825624 1.45476-1.687144t1.369742-1.757048q0.663144-0.895528 1.282833-1.821284 0.617801-0.925756 1.190259-1.881741t1.097682-1.938421q0.525225-0.982435 1.001329-1.989432 0.476103-1.008886 0.901195-2.038553 0.426982-1.027779 0.801063-2.07634 0.374081-1.048561 0.697151-2.112236 0.32307-1.065565 0.59324-2.146244 0.27017-1.07879 0.48555-2.170804 0.217269-1.092015 0.379749-2.193476 0.164369-1.101461 0.272059-2.21048 0.109579-1.10524 0.16248-2.218037 0.05479-1.112797 0.05479-2.225594t-0.05479-2.223705q-0.056679-1.112797-0.164369-2.219926-0.109579-1.107129-0.273948-2.210479-0.164369-1.099572-0.381639-2.191587-0.217269-1.090125-0.487439-2.170805-0.272059-1.07879-0.595129-2.144354-0.32307-1.065565-0.699041-2.114125-0.37597-1.046672-0.801062-2.07445-0.426982-1.029668-0.903085-2.034775-0.476103-1.006996-1.001329-1.987543-0.525225-0.982435-1.097682-1.936531-0.572458-0.954096-1.192148-1.879853-0.617801-0.925756-1.280945-1.819394-0.663144-0.893638-1.369741-1.75327-0.706598-0.859631-1.45476-1.685254-0.748162-0.823734-1.536-1.611572-0.785948-0.785948-1.611572-1.534111-0.825624-0.746273-1.685255-1.452871-0.86152-0.704708-1.755159-1.367852-0.895528-0.661255-1.819394-1.280945-0.925756-0.617801-1.881742-1.190258-0.954096-0.572458-1.936532-1.095794-0.982435-0.525225-1.987542-1.001328-1.006996-0.474214-2.036664-0.899306l-438.317343-181.372694q-1.025889-0.425092-2.074451-0.801063-1.046672-0.374081-2.110346-0.695262-1.065565-0.32307-2.144355-0.59324-1.07879-0.27017-2.168915-0.487439-1.090125-0.21538-2.191586-0.377859-1.099572-0.164369-2.206702-0.273949-1.107129-0.10769-2.216147-0.16248Q513.112797 20.782288 512 20.782288q-1.112797 0-2.223705 0.054789-1.109018 0.05479-2.216147 0.16248-1.107129 0.109579-2.206702 0.272059-1.101461 0.164369-2.191586 0.379749-1.090125 0.217269-2.168915 0.487439-1.07879 0.27017-2.144355 0.59324-1.063675 0.321181-2.110346 0.695262-1.048561 0.37597-2.074451 0.801063l-438.317343 181.372694q-1.029668 0.425092-2.038553 0.901195-1.006996 0.476103-1.989432 1.001329-0.982435 0.525225-1.938421 1.095793-0.955985 0.574347-1.881741 1.192148-0.925756 0.61969-1.821285 1.284723-0.895528 0.661255-1.757048 1.367852-0.86152 0.706598-1.687143 1.45476-0.825624 0.750052-1.613462 1.536-0.787838 0.787838-1.536 1.613462-0.748162 0.825624-1.45476 1.687144t-1.369742 1.757048q-0.663144 0.895528-1.282833 1.821284-0.617801 0.925756-1.190259 1.881741t-1.097682 1.938421q-0.525225 0.982435-1.001329 1.991321-0.476103 1.006996-0.901195 2.036664-0.426982 1.027779-0.801063 2.07634-0.374081 1.048561-0.699041 2.112236-0.321181 1.065565-0.59135 2.146244-0.27017 1.07879-0.487439 2.172693-0.21538 1.090125-0.37786 2.191587-0.164369 1.101461-0.272059 2.21048-0.109579 1.10524-0.16248 2.218037-0.056679 1.110908-0.05479 2.225594 0 1.112797 0.056679 2.223704 0.0529 1.112797 0.16248 2.219927 0.109579 1.107129 0.273948 2.20859 0.164369 1.101461 0.381639 2.193476 0.217269 1.090125 0.487439 2.170805 0.272059 1.07879 0.595129 2.144354 0.32307 1.065565 0.699041 2.112236 0.37597 1.048561 0.801062 2.076339 0.426982 1.029668 0.903085 2.034775 0.476103 1.006996 1.001329 1.987543 0.525225 0.982435 1.095793 1.936531 0.574347 0.954096 1.192148 1.879853 0.61969 0.925756 1.284723 1.819394 0.661255 0.893638 1.367852 1.75327 0.706598 0.859631 1.45476 1.685254 0.748162 0.823734 1.536 1.611572 0.785948 0.785948 1.611572 1.534111 0.825624 0.746273 1.685255 1.452871 0.86152 0.704708 1.757048 1.367852 0.893638 0.663144 1.819395 1.280945 0.925756 0.617801 1.879852 1.190258t1.936532 1.095794q0.982435 0.525225 1.987542 0.999439 1.006996 0.476103 2.036664 0.901195zM512 379.798199L192.273948 247.498155 512 115.198111 831.727941 247.498155 512 379.798199zM91.018863 462.545712L512 636.742849l420.981137-174.197137q2.055557-0.852074 4.184797-1.496325 2.131129-0.64614 4.313269-1.080679 2.18214-0.432649 4.398288-0.651808Q948.091749 459.099631 950.317343 459.099631q1.112797 0 2.225594 0.05479 1.110908 0.05479 2.218037 0.164369 1.109018 0.10769 2.208591 0.272059 1.101461 0.16248 2.193476 0.379749 1.092015 0.217269 2.170804 0.487439 1.080679 0.27017 2.146244 0.59324t2.112236 0.69904q1.048561 0.374081 2.076339 0.801063 1.029668 0.425092 2.034775 0.901196 1.006996 0.476103 1.989432 1.001328 0.980546 0.525225 1.934642 1.095793 0.955985 0.572458 1.881742 1.192148 0.925756 0.617801 1.819394 1.280945 0.893638 0.663144 1.75327 1.369741 0.86152 0.704708 1.685254 1.452871 0.825624 0.748162 1.613462 1.534111 0.785948 0.787838 1.53411 1.613461 0.746273 0.823734 1.452871 1.685255 0.706598 0.859631 1.369742 1.753269 0.663144 0.893638 1.280945 1.819395 0.61969 0.925756 1.190258 1.881742 0.572458 0.954096 1.097683 1.934642 0.525225 0.982435 1.001328 1.989431 0.476103 1.005107 0.901196 2.034775 0.426982 1.027779 0.801062 2.07634 0.37597 1.046672 0.699041 2.112236 0.32307 1.065565 0.59324 2.144354 0.27017 1.080679 0.487439 2.172694 0.217269 1.092015 0.379749 2.191587 0.164369 1.101461 0.272059 2.210479 0.109579 1.107129 0.164369 2.218037 0.05479 1.112797 0.05479 2.225594 0 0.83507-0.030229 1.670141-0.032118 0.833181-0.092576 1.666361-0.062347 0.833181-0.153033 1.662583-0.092576 0.829402-0.21538 1.656915-0.122804 0.825624-0.275838 1.64558-0.153033 0.821845-0.336295 1.636133-0.181373 0.814288-0.394863 1.622907-0.213491 0.806731-0.455321 1.605904t-0.51389 1.588901q-0.272059 0.789727-0.572457 1.568118t-0.629137 1.547336q-0.330627 0.767055-0.687705 1.520885-0.357077 0.75572-0.740605 1.496325-0.385417 0.740605-0.797284 1.467985-0.411867 0.725491-0.850184 1.437757-0.438317 0.710376-0.901196 1.403749-0.464768 0.695262-0.954096 1.371631t-1.003218 1.333845q-0.513889 0.659365-1.05045 1.297948-0.53845 0.638583-1.099572 1.256384-0.561122 0.61969-1.143026 1.216708-0.583793 0.597018-1.188369 1.173255t-1.231823 1.127911q-0.625358 0.553565-1.271498 1.082569-0.644251 0.530893-1.309284 1.035335-0.665033 0.506332-1.34707 0.986215-0.683926 0.479882-1.382967 0.935202-0.70093 0.455321-1.416974 0.884192-0.716044 0.428871-1.447203 0.831292-0.733048 0.402421-1.479321 0.778391-0.744384 0.37597-1.503882 0.723601-0.759498 0.345742-1.532221 0.665034l-438.317343 181.372693q-1.025889 0.425092-2.074451 0.801063-1.046672 0.374081-2.110346 0.695262-1.065565 0.32307-2.144355 0.59324-1.07879 0.27017-2.168915 0.487439-1.090125 0.21538-2.191586 0.379749-1.099572 0.16248-2.206702 0.272059-1.107129 0.10769-2.216147 0.16248-1.110908 0.05479-2.223705 0.05479-1.112797 0-2.223705-0.05479-1.109018-0.05479-2.216147-0.16248-1.107129-0.109579-2.206702-0.272059-1.101461-0.164369-2.191586-0.379749-1.090125-0.217269-2.168915-0.487439-1.07879-0.27017-2.144355-0.59324-1.063675-0.321181-2.110346-0.695262-1.048561-0.37597-2.074451-0.801063l-438.317343-181.372693q-0.772723-0.319292-1.530332-0.665034-0.761387-0.347631-1.505771-0.723601-0.746273-0.37597-1.479321-0.778391-0.731159-0.402421-1.447203-0.831292-0.717934-0.428871-1.416974-0.884192-0.699041-0.455321-1.382967-0.935202-0.682037-0.479882-1.34707-0.986215-0.665033-0.504443-1.309284-1.035335-0.64614-0.529004-1.271498-1.082569-0.625358-0.551675-1.231823-1.127911-0.604576-0.576236-1.188369-1.173255-0.581904-0.597018-1.143026-1.216708-0.561122-0.617801-1.099572-1.256384-0.536561-0.638583-1.05045-1.297948-0.513889-0.657476-1.003218-1.333845-0.491218-0.676369-0.954096-1.371631-0.462878-0.693373-0.901196-1.403749-0.438317-0.712266-0.850184-1.437757-0.411867-0.72738-0.797284-1.467985-0.383528-0.740605-0.740605-1.496325-0.358967-0.75383-0.687705-1.520885-0.328738-0.768945-0.629137-1.547336-0.300399-0.778391-0.572457-1.568118t-0.51389-1.588901q-0.24183-0.799173-0.455321-1.605904-0.213491-0.80862-0.396752-1.622907-0.181373-0.814288-0.334406-1.636133-0.153033-0.819956-0.275838-1.64558-0.122804-0.827513-0.21538-1.656915-0.090686-0.829402-0.151144-1.662583-0.064236-0.833181-0.094465-1.666361Q28.339483 505.277875 28.339483 504.442804q0-1.112797 0.05479-2.225594 0.05479-1.110908 0.164369-2.218037 0.10769-1.109018 0.272059-2.210479 0.16248-1.099572 0.379749-2.191587 0.217269-1.092015 0.487439-2.172694 0.27017-1.07879 0.59324-2.144354 0.32307-1.065565 0.699041-2.112236 0.374081-1.048561 0.801062-2.07634 0.425092-1.029668 0.901196-2.034775 0.476103-1.006996 1.001328-1.989431 0.525225-0.980546 1.095794-1.936532 0.572458-0.954096 1.190258-1.879852 0.61969-0.925756 1.282834-1.819395 0.663144-0.893638 1.369742-1.753269 0.704708-0.86152 1.45476-1.685255 0.746273-0.825624 1.532221-1.613461 0.787838-0.785948 1.613462-1.534111 0.823734-0.748162 1.685254-1.452871 0.859631-0.706598 1.75327-1.369741 0.893638-0.663144 1.819394-1.280945 0.925756-0.61969 1.879853-1.192148 0.955985-0.570568 1.93842-1.095793 0.982435-0.525225 1.987543-1.001328t2.034775-0.901196q1.027779-0.426982 2.076339-0.801063 1.046672-0.37597 2.112236-0.69904 1.065565-0.32307 2.144355-0.59324 1.080679-0.27017 2.172693-0.487439 1.092015-0.217269 2.191587-0.379749 1.101461-0.164369 2.21048-0.272059 1.107129-0.109579 2.218037-0.164369Q72.56986 459.099631 73.682657 459.099631q2.225594 0 4.439852 0.217269 2.216148 0.219159 4.398288 0.651808 2.18214 0.434539 4.313269 1.080679 2.12924 0.644251 4.184797 1.496325z m0.041565 256.961653L512 893.687498l420.947129-174.183911 0.034008-0.013225q2.055557-0.852074 4.184797-1.496325 2.131129-0.64614 4.313269-1.080679 2.18214-0.432649 4.398288-0.651808Q948.091749 716.04428 950.317343 716.04428q1.112797 0 2.225594 0.05479 1.110908 0.05479 2.218037 0.164369 1.109018 0.10769 2.208591 0.272059 1.101461 0.16248 2.193476 0.379749 1.092015 0.217269 2.170804 0.487439 1.080679 0.27017 2.146244 0.59324t2.112236 0.699041q1.048561 0.374081 2.076339 0.801063 1.029668 0.425092 2.034775 0.901195 1.006996 0.476103 1.989432 1.001329 0.980546 0.525225 1.934642 1.095793 0.955985 0.572458 1.881742 1.192147 0.925756 0.617801 1.819394 1.280945 0.893638 0.663144 1.75327 1.369742 0.86152 0.706598 1.685254 1.452871 0.825624 0.748162 1.613462 1.53411 0.785948 0.787838 1.53411 1.613462 0.746273 0.823734 1.452871 1.685254 0.706598 0.859631 1.369742 1.75327 0.663144 0.893638 1.280945 1.819394 0.61969 0.925756 1.190258 1.881742 0.572458 0.954096 1.097683 1.934642 0.525225 0.982435 1.001328 1.989432 0.476103 1.005107 0.901196 2.034775 0.426982 1.027779 0.801062 2.076339 0.37597 1.046672 0.699041 2.112236 0.32307 1.065565 0.59324 2.144355 0.27017 1.080679 0.487439 2.172693 0.217269 1.092015 0.379749 2.191587 0.164369 1.101461 0.272059 2.21048 0.109579 1.107129 0.164369 2.218037 0.05479 1.112797 0.05479 2.225594 0 0.83507-0.030229 1.67014-0.032118 0.833181-0.092576 1.666362-0.062347 0.833181-0.153033 1.662583-0.092576 0.829402-0.21538 1.656915-0.122804 0.825624-0.275838 1.645579-0.153033 0.821845-0.334406 1.636133-0.183262 0.814288-0.396752 1.622908-0.213491 0.806731-0.455321 1.605904t-0.51389 1.5889q-0.272059 0.789727-0.572457 1.568118t-0.629137 1.547336q-0.330627 0.767055-0.687705 1.520886-0.357077 0.75572-0.740605 1.496324-0.385417 0.740605-0.797284 1.467986-0.411867 0.725491-0.850184 1.437756-0.436428 0.710376-0.901196 1.403749-0.464768 0.695262-0.954096 1.371631t-1.003218 1.333845q-0.513889 0.659365-1.05045 1.297949-0.53845 0.638583-1.099572 1.256383-0.561122 0.61969-1.143026 1.216709-0.583793 0.597018-1.188369 1.173254t-1.231823 1.127912q-0.625358 0.553565-1.271498 1.082568-0.644251 0.530893-1.309284 1.035336-0.665033 0.506332-1.34707 0.986214-0.683926 0.479882-1.382967 0.935203-0.70093 0.455321-1.416974 0.884192-0.716044 0.428871-1.447203 0.831291-0.733048 0.402421-1.479321 0.778391-0.744384 0.37597-1.503882 0.723602-0.759498 0.345742-1.532221 0.665033l-0.032118 0.015115-438.285225 181.357579q-1.025889 0.425092-2.074451 0.801063-1.046672 0.374081-2.110346 0.695262-1.065565 0.32307-2.144355 0.593239-1.07879 0.27017-2.168915 0.48744-1.090125 0.21538-2.191586 0.379749-1.099572 0.16248-2.206702 0.272059-1.107129 0.10769-2.216147 0.162479-1.110908 0.05479-2.223705 0.05479-1.112797 0-2.223705-0.05479-1.109018-0.05479-2.216147-0.162479-1.107129-0.109579-2.206702-0.272059-1.101461-0.164369-2.191586-0.379749-1.090125-0.217269-2.168915-0.48744-1.07879-0.27017-2.144355-0.593239-1.063675-0.321181-2.110346-0.695262-1.048561-0.37597-2.074451-0.801063L56.386125 803.30155l-0.039675-0.017004q-0.772723-0.319292-1.530332-0.665033-0.761387-0.347631-1.505771-0.723602-0.746273-0.37597-1.479321-0.778391-0.731159-0.402421-1.447203-0.831291-0.717934-0.428871-1.416974-0.884192-0.699041-0.455321-1.382967-0.935203-0.682037-0.479882-1.34707-0.986214-0.665033-0.504443-1.309284-1.035336-0.64614-0.529004-1.271498-1.082568-0.625358-0.551675-1.231823-1.127912-0.604576-0.576236-1.188369-1.173254-0.581904-0.597018-1.143026-1.216709-0.561122-0.617801-1.099572-1.256383-0.536561-0.638583-1.05045-1.297949-0.513889-0.657476-1.003218-1.333845-0.491218-0.676369-0.954096-1.371631-0.462878-0.693373-0.901196-1.403749-0.438317-0.712266-0.850184-1.437756-0.411867-0.72738-0.797284-1.467986-0.383528-0.740605-0.740605-1.496324-0.358967-0.75383-0.687705-1.520886-0.328738-0.768945-0.629137-1.547336-0.300399-0.778391-0.572457-1.568118t-0.51389-1.5889q-0.24183-0.799173-0.455321-1.605904-0.213491-0.80862-0.396752-1.622908-0.181373-0.814288-0.334406-1.636133-0.153033-0.819956-0.275838-1.645579-0.122804-0.827513-0.21538-1.656915-0.090686-0.829402-0.151144-1.662583-0.064236-0.833181-0.094465-1.666362Q28.339483 762.222524 28.339483 761.387454q0-1.112797 0.05479-2.225594 0.05479-1.110908 0.164369-2.218037 0.10769-1.109018 0.272059-2.21048 0.16248-1.099572 0.379749-2.191587 0.217269-1.092015 0.487439-2.172693 0.27017-1.07879 0.59324-2.144355 0.32307-1.065565 0.699041-2.112236 0.374081-1.048561 0.801062-2.076339 0.425092-1.029668 0.901196-2.034775 0.476103-1.006996 1.001328-1.989432 0.525225-0.980546 1.095794-1.936531 0.572458-0.954096 1.190258-1.879853 0.61969-0.925756 1.282834-1.819394 0.663144-0.893638 1.369742-1.75327 0.704708-0.86152 1.45476-1.685254 0.746273-0.825624 1.532221-1.613462 0.787838-0.785948 1.613462-1.53411 0.823734-0.746273 1.685254-1.452871 0.859631-0.706598 1.75327-1.369742 0.893638-0.663144 1.819394-1.280945 0.925756-0.61969 1.879853-1.192147 0.955985-0.570568 1.93842-1.095793 0.982435-0.525225 1.987543-1.001329t2.034775-0.901195q1.027779-0.426982 2.076339-0.801063 1.046672-0.37597 2.112236-0.699041 1.065565-0.32307 2.144355-0.59324 1.080679-0.27017 2.172693-0.487439 1.092015-0.217269 2.191587-0.379749 1.101461-0.164369 2.21048-0.272059 1.107129-0.109579 2.218037-0.164369Q72.56986 716.04428 73.682657 716.04428q2.225594 0 4.439852 0.21727 2.216148 0.219159 4.398288 0.651808 2.18214 0.434539 4.313269 1.080679 2.12924 0.644251 4.184797 1.496325l0.041565 0.017003z" p-id="5985" fill="#2c2c2c"></path></svg>